<svg width="1789" height="91" viewBox="0 0 1789 91" fill="none" xmlns="http://www.w3.org/2000/svg">
<path d="M0 0H1789V84H0V0Z" fill="white"/>
<g filter="url(#filter0_d_502_21784)">
<g filter="url(#filter1_d_502_21784)">
<rect x="1579" y="18.5796" width="89.541" height="48.8405" rx="24.4203" fill="#F45C2C"/>
</g>
<path d="M1613.74 43.2028V43.9137C1613.74 45.4596 1613.21 46.746 1612.15 47.7729C1611.09 48.7884 1609.68 49.2962 1607.93 49.2962C1606.13 49.2962 1604.63 48.7038 1603.45 47.519C1602.28 46.3228 1601.69 44.8672 1601.69 43.152C1601.69 41.4368 1602.28 39.9868 1603.45 38.802C1604.63 37.6058 1606.12 37.0078 1607.9 37.0078C1609 37.0078 1610 37.273 1610.91 37.8033C1611.83 38.3224 1612.53 39.0107 1613.03 39.8683L1611.68 40.6638C1611.34 40.0206 1610.82 39.5072 1610.14 39.1236C1609.46 38.7286 1608.71 38.5311 1607.88 38.5311C1606.53 38.5311 1605.42 38.9769 1604.55 39.8683C1603.68 40.7485 1603.25 41.843 1603.25 43.152C1603.25 44.461 1603.68 45.5555 1604.55 46.4357C1605.43 47.3158 1606.56 47.7559 1607.95 47.7559C1609.14 47.7559 1610.1 47.4682 1610.83 46.8927C1611.56 46.3059 1612.01 45.5499 1612.17 44.6246H1607.82V43.2028H1613.74ZM1622.65 48.0098C1621.78 48.8674 1620.72 49.2962 1619.48 49.2962C1618.24 49.2962 1617.18 48.8674 1616.31 48.0098C1615.46 47.1522 1615.03 46.0972 1615.03 44.8446C1615.03 43.5921 1615.46 42.537 1616.31 41.6794C1617.18 40.8218 1618.24 40.393 1619.48 40.393C1620.72 40.393 1621.78 40.8218 1622.65 41.6794C1623.51 42.537 1623.95 43.5921 1623.95 44.8446C1623.95 46.0972 1623.51 47.1522 1622.65 48.0098ZM1619.48 47.8575C1620.33 47.8575 1621.04 47.5697 1621.61 46.9942C1622.19 46.4188 1622.48 45.7022 1622.48 44.8446C1622.48 43.987 1622.19 43.2705 1621.61 42.695C1621.04 42.1195 1620.33 41.8318 1619.48 41.8318C1618.64 41.8318 1617.94 42.1195 1617.36 42.695C1616.79 43.2705 1616.5 43.987 1616.5 44.8446C1616.5 45.7022 1616.79 46.4188 1617.36 46.9942C1617.94 47.5697 1618.64 47.8575 1619.48 47.8575Z" fill="white"/>
<path d="M1634.05 43.2119C1633.7 43.2119 1633.42 43.4961 1633.42 43.8467C1633.42 44.1972 1633.7 44.4814 1634.05 44.4814L1634.05 43.2119ZM1645.93 44.2955C1646.17 44.0476 1646.17 43.6457 1645.93 43.3979L1641.89 39.3584C1641.64 39.1106 1641.24 39.1106 1640.99 39.3584C1640.74 39.6063 1640.74 40.0082 1640.99 40.2561L1644.58 43.8467L1640.99 47.4373C1640.74 47.6852 1640.74 48.087 1640.99 48.3349C1641.24 48.5828 1641.64 48.5828 1641.89 48.3349L1645.93 44.2955ZM1634.05 44.4814L1645.48 44.4814L1645.48 43.2119L1634.05 43.2119L1634.05 44.4814Z" fill="white"/>
</g>
<path d="M141.128 32.7402V53H138.465V37.1684L131.838 48.1955H131.49L124.862 37.1974V53H122.171V32.7402H125.21L131.664 43.449L138.089 32.7402H141.128ZM155.185 38.5287H157.703V53H155.185V50.9161C154.162 52.5562 152.6 53.3763 150.496 53.3763C148.798 53.3763 147.438 52.8456 146.415 51.7844C145.393 50.7039 144.882 49.2471 144.882 47.4141V38.5287H147.4V47.2694C147.4 48.4464 147.718 49.3629 148.355 50.0189C148.991 50.6557 149.869 50.974 150.988 50.974C152.243 50.974 153.256 50.5881 154.027 49.8163C154.799 49.0252 155.185 47.8193 155.185 46.1985V38.5287ZM177.166 38.1525C178.786 38.1525 180.098 38.6831 181.102 39.7443C182.105 40.7862 182.607 42.2044 182.607 43.9989V53H180.089V44.0857C180.089 42.9666 179.799 42.0983 179.221 41.4809C178.642 40.8634 177.87 40.5547 176.905 40.5547C175.825 40.5547 174.956 40.9213 174.3 41.6545C173.664 42.3684 173.345 43.4683 173.345 44.954V53H170.827V44.0857C170.827 42.9666 170.547 42.0983 169.988 41.4809C169.448 40.8634 168.705 40.5547 167.759 40.5547C166.698 40.5547 165.81 40.9213 165.097 41.6545C164.402 42.3877 164.055 43.4876 164.055 44.954V53H161.537V38.5287H164.055V40.4679C165.039 38.9243 166.476 38.1525 168.367 38.1525C170.316 38.1525 171.734 38.9725 172.622 40.6126C173.625 38.9725 175.14 38.1525 177.166 38.1525ZM194.086 38.1525C196.112 38.1525 197.839 38.8953 199.267 40.3811C200.695 41.8475 201.409 43.6419 201.409 45.7644C201.409 47.8868 200.695 49.6909 199.267 51.1766C197.839 52.643 196.112 53.3763 194.086 53.3763C191.694 53.3763 189.87 52.4211 188.616 50.5109V53H186.098V32.7402H188.616V41.0178C189.87 39.1076 191.694 38.1525 194.086 38.1525ZM193.768 50.9451C195.215 50.9451 196.431 50.4531 197.415 49.469C198.399 48.4657 198.891 47.2308 198.891 45.7644C198.891 44.2979 198.399 43.0727 197.415 42.0887C196.431 41.0853 195.215 40.5836 193.768 40.5836C192.302 40.5836 191.076 41.0853 190.092 42.0887C189.108 43.0727 188.616 44.2979 188.616 45.7644C188.616 47.2308 189.108 48.4657 190.092 49.469C191.076 50.4531 192.302 50.9451 193.768 50.9451ZM216.396 38.5287H218.914V53H216.396V50.5109C215.141 52.4211 213.318 53.3763 210.925 53.3763C208.9 53.3763 207.173 52.643 205.745 51.1766C204.317 49.6909 203.603 47.8868 203.603 45.7644C203.603 43.6419 204.317 41.8475 205.745 40.3811C207.173 38.8953 208.9 38.1525 210.925 38.1525C213.318 38.1525 215.141 39.1076 216.396 41.0178V38.5287ZM211.244 50.9451C212.71 50.9451 213.936 50.4531 214.92 49.469C215.904 48.4657 216.396 47.2308 216.396 45.7644C216.396 44.2979 215.904 43.0727 214.92 42.0887C213.936 41.0853 212.71 40.5836 211.244 40.5836C209.797 40.5836 208.581 41.0853 207.597 42.0887C206.613 43.0727 206.121 44.2979 206.121 45.7644C206.121 47.2308 206.613 48.4657 207.597 49.469C208.581 50.4531 209.797 50.9451 211.244 50.9451ZM224.002 35.895C223.52 35.895 223.115 35.7309 222.786 35.4029C222.458 35.0749 222.294 34.6794 222.294 34.2163C222.294 33.7532 222.458 33.3577 222.786 33.0296C223.115 32.6823 223.52 32.5087 224.002 32.5087C224.465 32.5087 224.861 32.6823 225.189 33.0296C225.517 33.3577 225.681 33.7532 225.681 34.2163C225.681 34.6794 225.517 35.0749 225.189 35.4029C224.861 35.7309 224.465 35.895 224.002 35.895ZM222.729 53V38.5287H225.247V53H222.729ZM232.851 50.0189L230.969 57.052H228.799L229.956 50.0189H232.851Z" fill="#434343"/>
<rect x="662.839" y="18.1275" width="271.336" height="49.745" rx="24.8725" stroke="#9B9B9B" strokeWidth="0.904454"/>
<rect x="890.761" y="25.3634" width="34.653" height="34.653" rx="17.3265" stroke="#9B9B9B" strokeWidth="0.904454"/>
<path d="M901.295 39.8203L908.357 46.8826L911.888 43.3514L915.419 39.8203" stroke="#9B9B9B" strokeWidth="1.56939" strokeLinecap="round"/>
<rect x="669.623" y="24.6753" width="213.245" height="36.1782" rx="18.0891" fill="#F3F5F7"/>
<path d="M712.859 40.3997L712.521 41.5531H706.077L706.415 40.3997H712.859ZM709.836 48.1753L706.197 43.7207L706.177 42.8855H707.987C708.457 42.8855 708.858 42.8192 709.19 42.6867C709.521 42.5508 709.775 42.3486 709.95 42.0801C710.126 41.8083 710.214 41.467 710.214 41.056C710.214 40.4494 710.031 39.9738 709.667 39.6291C709.302 39.2811 708.742 39.1071 707.987 39.1071H706.077L706.415 37.9935H707.987C708.795 37.9935 709.458 38.1277 709.975 38.3962C710.496 38.6613 710.88 39.0259 711.129 39.4899C711.38 39.9506 711.506 40.4726 711.506 41.056C711.506 41.583 711.39 42.0685 711.158 42.5127C710.93 42.9535 710.562 43.3081 710.055 43.5766C709.551 43.845 708.885 43.9793 708.056 43.9793H708.026L711.387 48.0957V48.1753H709.836ZM712.859 37.9935L712.521 39.1469L707.45 39.1071L707.788 37.9935H712.859ZM717.556 48.3145C716.873 48.3145 716.27 48.1935 715.746 47.9516C715.226 47.7063 714.82 47.3699 714.528 46.9423C714.236 46.5115 714.092 46.0209 714.095 45.4707C714.092 45.0399 714.177 44.6421 714.349 44.2776C714.521 43.9097 714.757 43.6031 715.055 43.3578C715.356 43.1092 715.693 42.9518 716.064 42.8855V42.8259C715.577 42.6999 715.189 42.4265 714.901 42.0055C714.612 41.5813 714.47 41.0991 714.473 40.5588C714.47 40.0418 714.601 39.5794 714.866 39.1717C715.131 38.7641 715.496 38.4426 715.96 38.2073C716.427 37.9719 716.959 37.8543 717.556 37.8543C718.146 37.8543 718.673 37.9719 719.137 38.2073C719.601 38.4426 719.965 38.7641 720.23 39.1717C720.499 39.5794 720.635 40.0418 720.638 40.5588C720.635 41.0991 720.487 41.5813 720.195 42.0055C719.907 42.4265 719.524 42.6999 719.047 42.8259V42.8855C719.415 42.9518 719.746 43.1092 720.041 43.3578C720.336 43.6031 720.572 43.9097 720.747 44.2776C720.923 44.6421 721.012 45.0399 721.016 45.4707C721.012 46.0209 720.863 46.5115 720.568 46.9423C720.277 47.3699 719.871 47.7063 719.35 47.9516C718.833 48.1935 718.235 48.3145 717.556 48.3145ZM717.556 47.2207C718.016 47.2207 718.414 47.1462 718.749 46.997C719.084 46.8479 719.342 46.6374 719.524 46.3656C719.707 46.0939 719.799 45.7757 719.803 45.4111C719.799 45.0266 719.7 44.6869 719.504 44.3919C719.309 44.0969 719.042 43.8649 718.704 43.6959C718.369 43.5269 717.986 43.4423 717.556 43.4423C717.121 43.4423 716.734 43.5269 716.392 43.6959C716.054 43.8649 715.787 44.0969 715.592 44.3919C715.4 44.6869 715.305 45.0266 715.308 45.4111C715.305 45.7757 715.393 46.0939 715.572 46.3656C715.754 46.6374 716.014 46.8479 716.352 46.997C716.691 47.1462 717.092 47.2207 717.556 47.2207ZM717.556 42.3884C717.92 42.3884 718.243 42.3154 718.525 42.1696C718.81 42.0238 719.034 41.8199 719.196 41.5581C719.359 41.2963 719.441 40.9897 719.445 40.6384C719.441 40.2937 719.36 39.9937 719.201 39.7385C719.042 39.48 718.822 39.2811 718.54 39.1419C718.258 38.9994 717.93 38.9281 717.556 38.9281C717.174 38.9281 716.841 38.9994 716.556 39.1419C716.271 39.2811 716.051 39.48 715.895 39.7385C715.739 39.9937 715.663 40.2937 715.666 40.6384C715.663 40.9897 715.741 41.2963 715.9 41.5581C716.062 41.8199 716.286 42.0238 716.571 42.1696C716.856 42.3154 717.184 42.3884 717.556 42.3884ZM726.242 48.3145C725.493 48.3145 724.855 48.1107 724.328 47.703C723.801 47.292 723.398 46.6971 723.12 45.9182C722.842 45.136 722.702 44.1914 722.702 43.0844C722.702 41.984 722.842 41.0444 723.12 40.2655C723.402 39.4833 723.806 38.8867 724.333 38.4757C724.863 38.0614 725.5 37.8543 726.242 37.8543C726.985 37.8543 727.619 38.0614 728.146 38.4757C728.677 38.8867 729.081 39.4833 729.359 40.2655C729.641 41.0444 729.782 41.984 729.782 43.0844C729.782 44.1914 729.643 45.136 729.364 45.9182C729.086 46.6971 728.683 47.292 728.156 47.703C727.629 48.1107 726.991 48.3145 726.242 48.3145ZM726.242 47.2207C726.985 47.2207 727.561 46.8628 727.972 46.1469C728.383 45.431 728.589 44.4101 728.589 43.0844C728.589 42.2028 728.494 41.452 728.305 40.8323C728.12 40.2125 727.851 39.7402 727.5 39.4153C727.152 39.0905 726.733 38.9281 726.242 38.9281C725.506 38.9281 724.931 39.2911 724.517 40.0169C724.103 40.7394 723.896 41.7619 723.896 43.0844C723.896 43.966 723.988 44.7151 724.174 45.3315C724.36 45.948 724.626 46.417 724.974 46.7385C725.326 47.06 725.748 47.2207 726.242 47.2207ZM734.992 48.3145C734.243 48.3145 733.605 48.1107 733.078 47.703C732.551 47.292 732.148 46.6971 731.87 45.9182C731.592 45.136 731.452 44.1914 731.452 43.0844C731.452 41.984 731.592 41.0444 731.87 40.2655C732.152 39.4833 732.556 38.8867 733.083 38.4757C733.613 38.0614 734.25 37.8543 734.992 37.8543C735.735 37.8543 736.369 38.0614 736.896 38.4757C737.427 38.8867 737.831 39.4833 738.109 40.2655C738.391 41.0444 738.532 41.984 738.532 43.0844C738.532 44.1914 738.393 45.136 738.114 45.9182C737.836 46.6971 737.433 47.292 736.906 47.703C736.379 48.1107 735.741 48.3145 734.992 48.3145ZM734.992 47.2207C735.735 47.2207 736.311 46.8628 736.722 46.1469C737.133 45.431 737.339 44.4101 737.339 43.0844C737.339 42.2028 737.244 41.452 737.055 40.8323C736.87 40.2125 736.601 39.7402 736.25 39.4153C735.902 39.0905 735.483 38.9281 734.992 38.9281C734.256 38.9281 733.681 39.2911 733.267 40.0169C732.853 40.7394 732.646 41.7619 732.646 43.0844C732.646 43.966 732.738 44.7151 732.924 45.3315C733.11 45.948 733.376 46.417 733.724 46.7385C734.076 47.06 734.498 47.2207 734.992 47.2207ZM743.742 48.3145C742.993 48.3145 742.355 48.1107 741.828 47.703C741.301 47.292 740.898 46.6971 740.62 45.9182C740.342 45.136 740.202 44.1914 740.202 43.0844C740.202 41.984 740.342 41.0444 740.62 40.2655C740.902 39.4833 741.306 38.8867 741.833 38.4757C742.363 38.0614 743 37.8543 743.742 37.8543C744.485 37.8543 745.119 38.0614 745.646 38.4757C746.177 38.8867 746.581 39.4833 746.859 40.2655C747.141 41.0444 747.282 41.984 747.282 43.0844C747.282 44.1914 747.143 45.136 746.864 45.9182C746.586 46.6971 746.183 47.292 745.656 47.703C745.129 48.1107 744.491 48.3145 743.742 48.3145ZM743.742 47.2207C744.485 47.2207 745.061 46.8628 745.472 46.1469C745.883 45.431 746.089 44.4101 746.089 43.0844C746.089 42.2028 745.994 41.452 745.805 40.8323C745.62 40.2125 745.351 39.7402 745 39.4153C744.652 39.0905 744.233 38.9281 743.742 38.9281C743.006 38.9281 742.431 39.2911 742.017 40.0169C741.603 40.7394 741.396 41.7619 741.396 43.0844C741.396 43.966 741.488 44.7151 741.674 45.3315C741.86 45.948 742.126 46.417 742.474 46.7385C742.826 47.06 743.248 47.2207 743.742 47.2207Z" fill="#434343"/>
<line x1="770.387" y1="42.5753" x2="780.387" y2="42.5753" stroke="#434343" strokeWidth="1.2"/>
<path d="M809.273 40.3997L808.935 41.5531H802.491L802.83 40.3997H809.273ZM806.25 48.1753L802.611 43.7207L802.591 42.8855H804.401C804.871 42.8855 805.272 42.8192 805.604 42.6867C805.935 42.5508 806.189 42.3486 806.364 42.0801C806.54 41.8083 806.628 41.467 806.628 41.056C806.628 40.4494 806.446 39.9738 806.081 39.6291C805.716 39.2811 805.156 39.1071 804.401 39.1071H802.491L802.83 37.9935H804.401C805.209 37.9935 805.872 38.1277 806.389 38.3962C806.91 38.6613 807.294 39.0259 807.543 39.4899C807.795 39.9506 807.92 40.4726 807.92 41.056C807.92 41.583 807.804 42.0685 807.572 42.5127C807.344 42.9535 806.976 43.3081 806.469 43.5766C805.965 43.845 805.299 43.9793 804.47 43.9793H804.44L807.801 48.0957V48.1753H806.25ZM809.273 37.9935L808.935 39.1469L803.864 39.1071L804.202 37.9935H809.273ZM814.288 37.9935V48.1753H813.055V39.2861H812.995L810.509 40.9367V39.6838L813.055 37.9935H814.288ZM820.796 37.9935V48.1753H819.563V39.2861H819.503L817.017 40.9367V39.6838L819.563 37.9935H820.796ZM827.045 48.3145C826.296 48.3145 825.658 48.1107 825.131 47.703C824.604 47.292 824.201 46.6971 823.923 45.9182C823.644 45.136 823.505 44.1914 823.505 43.0844C823.505 41.984 823.644 41.0444 823.923 40.2655C824.204 39.4833 824.609 38.8867 825.136 38.4757C825.666 38.0614 826.302 37.8543 827.045 37.8543C827.787 37.8543 828.422 38.0614 828.949 38.4757C829.479 38.8867 829.884 39.4833 830.162 40.2655C830.444 41.0444 830.585 41.984 830.585 43.0844C830.585 44.1914 830.445 45.136 830.167 45.9182C829.889 46.6971 829.486 47.292 828.959 47.703C828.432 48.1107 827.794 48.3145 827.045 48.3145ZM827.045 47.2207C827.787 47.2207 828.364 46.8628 828.775 46.1469C829.186 45.431 829.392 44.4101 829.392 43.0844C829.392 42.2028 829.297 41.452 829.108 40.8323C828.923 40.2125 828.654 39.7402 828.303 39.4153C827.955 39.0905 827.535 38.9281 827.045 38.9281C826.309 38.9281 825.734 39.2911 825.32 40.0169C824.905 40.7394 824.698 41.7619 824.698 43.0844C824.698 43.966 824.791 44.7151 824.977 45.3315C825.162 45.948 825.429 46.417 825.777 46.7385C826.128 47.06 826.551 47.2207 827.045 47.2207ZM835.795 48.3145C835.046 48.3145 834.408 48.1107 833.881 47.703C833.354 47.292 832.951 46.6971 832.673 45.9182C832.394 45.136 832.255 44.1914 832.255 43.0844C832.255 41.984 832.394 41.0444 832.673 40.2655C832.954 39.4833 833.359 38.8867 833.886 38.4757C834.416 38.0614 835.052 37.8543 835.795 37.8543C836.537 37.8543 837.172 38.0614 837.699 38.4757C838.229 38.8867 838.634 39.4833 838.912 40.2655C839.194 41.0444 839.335 41.984 839.335 43.0844C839.335 44.1914 839.195 45.136 838.917 45.9182C838.639 46.6971 838.236 47.292 837.709 47.703C837.182 48.1107 836.544 48.3145 835.795 48.3145ZM835.795 47.2207C836.537 47.2207 837.114 46.8628 837.525 46.1469C837.936 45.431 838.142 44.4101 838.142 43.0844C838.142 42.2028 838.047 41.452 837.858 40.8323C837.673 40.2125 837.404 39.7402 837.053 39.4153C836.705 39.0905 836.285 38.9281 835.795 38.9281C835.059 38.9281 834.484 39.2911 834.07 40.0169C833.655 40.7394 833.448 41.7619 833.448 43.0844C833.448 43.966 833.541 44.7151 833.727 45.3315C833.912 45.948 834.179 46.417 834.527 46.7385C834.878 47.06 835.301 47.2207 835.795 47.2207ZM844.545 48.3145C843.796 48.3145 843.158 48.1107 842.631 47.703C842.104 47.292 841.701 46.6971 841.423 45.9182C841.144 45.136 841.005 44.1914 841.005 43.0844C841.005 41.984 841.144 41.0444 841.423 40.2655C841.704 39.4833 842.109 38.8867 842.636 38.4757C843.166 38.0614 843.802 37.8543 844.545 37.8543C845.287 37.8543 845.922 38.0614 846.449 38.4757C846.979 38.8867 847.384 39.4833 847.662 40.2655C847.944 41.0444 848.085 41.984 848.085 43.0844C848.085 44.1914 847.945 45.136 847.667 45.9182C847.389 46.6971 846.986 47.292 846.459 47.703C845.932 48.1107 845.294 48.3145 844.545 48.3145ZM844.545 47.2207C845.287 47.2207 845.864 46.8628 846.275 46.1469C846.686 45.431 846.892 44.4101 846.892 43.0844C846.892 42.2028 846.797 41.452 846.608 40.8323C846.423 40.2125 846.154 39.7402 845.803 39.4153C845.455 39.0905 845.035 38.9281 844.545 38.9281C843.809 38.9281 843.234 39.2911 842.82 40.0169C842.405 40.7394 842.198 41.7619 842.198 43.0844C842.198 43.966 842.291 44.7151 842.477 45.3315C842.662 45.948 842.929 46.417 843.277 46.7385C843.628 47.06 844.051 47.2207 844.545 47.2207Z" fill="#434343"/>
<g filter="url(#filter2_d_502_21784)">
<rect x="1136" y="19" width="432" height="49" rx="24.5" fill="white"/>
</g>
<circle cx="1543.11" cy="43.4203" r="18.9935" fill="#F1F1F1"/>
<path d="M1206.22 38.7V48.5H1204.93V40.842L1201.73 46.176H1201.56L1198.35 40.856V48.5H1197.05V38.7H1198.52L1201.64 43.88L1204.75 38.7H1206.22ZM1213.02 41.5H1214.24V48.5H1213.02V47.492C1212.52 48.2853 1211.77 48.682 1210.75 48.682C1209.93 48.682 1209.27 48.4253 1208.78 47.912C1208.28 47.3893 1208.04 46.6847 1208.04 45.798V41.5H1209.25V45.728C1209.25 46.2973 1209.41 46.7407 1209.72 47.058C1210.02 47.366 1210.45 47.52 1210.99 47.52C1211.6 47.52 1212.09 47.3333 1212.46 46.96C1212.83 46.5773 1213.02 45.994 1213.02 45.21V41.5ZM1223.65 41.318C1224.44 41.318 1225.07 41.5747 1225.56 42.088C1226.04 42.592 1226.28 43.278 1226.28 44.146V48.5H1225.07V44.188C1225.07 43.6467 1224.93 43.2267 1224.65 42.928C1224.37 42.6293 1223.99 42.48 1223.53 42.48C1223 42.48 1222.58 42.6573 1222.27 43.012C1221.96 43.3573 1221.8 43.8893 1221.8 44.608V48.5H1220.59V44.188C1220.59 43.6467 1220.45 43.2267 1220.18 42.928C1219.92 42.6293 1219.56 42.48 1219.1 42.48C1218.59 42.48 1218.16 42.6573 1217.81 43.012C1217.48 43.3667 1217.31 43.8987 1217.31 44.608V48.5H1216.09V41.5H1217.31V42.438C1217.79 41.6913 1218.48 41.318 1219.4 41.318C1220.34 41.318 1221.02 41.7147 1221.45 42.508C1221.94 41.7147 1222.67 41.318 1223.65 41.318ZM1231.84 41.318C1232.82 41.318 1233.65 41.6773 1234.34 42.396C1235.03 43.1053 1235.38 43.9733 1235.38 45C1235.38 46.0267 1235.03 46.8993 1234.34 47.618C1233.65 48.3273 1232.82 48.682 1231.84 48.682C1230.68 48.682 1229.8 48.22 1229.19 47.296V48.5H1227.97V38.7H1229.19V42.704C1229.8 41.78 1230.68 41.318 1231.84 41.318ZM1231.68 47.506C1232.38 47.506 1232.97 47.268 1233.45 46.792C1233.92 46.3067 1234.16 45.7093 1234.16 45C1234.16 44.2907 1233.92 43.698 1233.45 43.222C1232.97 42.7367 1232.38 42.494 1231.68 42.494C1230.97 42.494 1230.38 42.7367 1229.9 43.222C1229.43 43.698 1229.19 44.2907 1229.19 45C1229.19 45.7093 1229.43 46.3067 1229.9 46.792C1230.38 47.268 1230.97 47.506 1231.68 47.506ZM1242.63 41.5H1243.85V48.5H1242.63V47.296C1242.02 48.22 1241.14 48.682 1239.98 48.682C1239 48.682 1238.17 48.3273 1237.48 47.618C1236.79 46.8993 1236.44 46.0267 1236.44 45C1236.44 43.9733 1236.79 43.1053 1237.48 42.396C1238.17 41.6773 1239 41.318 1239.98 41.318C1241.14 41.318 1242.02 41.78 1242.63 42.704V41.5ZM1240.14 47.506C1240.85 47.506 1241.44 47.268 1241.91 46.792C1242.39 46.3067 1242.63 45.7093 1242.63 45C1242.63 44.2907 1242.39 43.698 1241.91 43.222C1241.44 42.7367 1240.85 42.494 1240.14 42.494C1239.44 42.494 1238.85 42.7367 1238.37 43.222C1237.9 43.698 1237.66 44.2907 1237.66 45C1237.66 45.7093 1237.9 46.3067 1238.37 46.792C1238.85 47.268 1239.44 47.506 1240.14 47.506ZM1246.31 40.226C1246.07 40.226 1245.88 40.1467 1245.72 39.988C1245.56 39.8293 1245.48 39.638 1245.48 39.414C1245.48 39.19 1245.56 38.9987 1245.72 38.84C1245.88 38.672 1246.07 38.588 1246.31 38.588C1246.53 38.588 1246.72 38.672 1246.88 38.84C1247.04 38.9987 1247.12 39.19 1247.12 39.414C1247.12 39.638 1247.04 39.8293 1246.88 39.988C1246.72 40.1467 1246.53 40.226 1246.31 40.226ZM1245.69 48.5V41.5H1246.91V48.5H1245.69Z" fill="#434343"/>
<line x1="1290.84" y1="36" x2="1290.84" y2="51" stroke="#6F6F6F" strokeWidth="0.678341"/>
<path d="M1335.77 38.7H1336.89V48.5H1335.6V40.1L1333.52 40.716L1333.2 39.596L1335.77 38.7ZM1344.64 43.418C1345.09 43.6327 1345.44 43.9407 1345.7 44.342C1345.97 44.7433 1346.11 45.2053 1346.11 45.728C1346.11 46.512 1345.83 47.17 1345.28 47.702C1344.73 48.234 1344.06 48.5 1343.27 48.5H1339.04V38.7H1342.96C1343.73 38.7 1344.37 38.9567 1344.91 39.47C1345.44 39.9833 1345.7 40.618 1345.7 41.374C1345.7 42.242 1345.35 42.9233 1344.64 43.418ZM1342.96 39.918H1340.34V42.914H1342.96C1343.37 42.914 1343.72 42.7693 1344 42.48C1344.28 42.1907 1344.42 41.836 1344.42 41.416C1344.42 41.0053 1344.27 40.6553 1343.98 40.366C1343.7 40.0673 1343.36 39.918 1342.96 39.918ZM1343.27 47.282C1343.71 47.282 1344.08 47.128 1344.37 46.82C1344.67 46.512 1344.82 46.134 1344.82 45.686C1344.82 45.2473 1344.67 44.874 1344.36 44.566C1344.06 44.258 1343.7 44.104 1343.27 44.104H1340.34V47.282H1343.27ZM1353.72 38.7H1355V48.5H1353.72V44.09H1348.96V48.5H1347.65V38.7H1348.96V42.858H1353.72V38.7ZM1364.23 48.5H1362.63L1358.4 43.796V48.5H1357.1V38.7H1358.4V43.124L1362.49 38.7H1364.09L1359.76 43.46L1364.23 48.5Z" fill="#434343"/>
<line x1="1407.84" y1="36" x2="1407.84" y2="51" stroke="#6F6F6F" strokeWidth="0.678341"/>
<path d="M1454.42 42.718C1455.17 42.858 1455.78 43.18 1456.26 43.684C1456.73 44.188 1456.97 44.8273 1456.97 45.602C1456.97 46.554 1456.65 47.3053 1455.99 47.856C1455.34 48.4067 1454.55 48.682 1453.61 48.682C1452.87 48.682 1452.2 48.514 1451.62 48.178C1451.05 47.8327 1450.63 47.338 1450.39 46.694L1451.48 46.05C1451.77 46.9553 1452.48 47.408 1453.61 47.408C1454.22 47.408 1454.71 47.2493 1455.1 46.932C1455.48 46.6147 1455.67 46.1713 1455.67 45.602C1455.67 45.0327 1455.48 44.5893 1455.1 44.272C1454.71 43.9453 1454.22 43.782 1453.61 43.782H1453.28L1452.76 42.984L1455.03 39.918H1450.67V38.7H1456.55V39.848L1454.42 42.718ZM1467.71 38.7V48.5H1466.42V40.842L1463.22 46.176H1463.05L1459.84 40.856V48.5H1458.54V38.7H1460.01L1463.13 43.88L1466.24 38.7H1467.71ZM1475.48 41.5H1476.7V48.5H1475.48V47.296C1474.87 48.22 1473.99 48.682 1472.83 48.682C1471.85 48.682 1471.02 48.3273 1470.33 47.618C1469.64 46.8993 1469.29 46.0267 1469.29 45C1469.29 43.9733 1469.64 43.1053 1470.33 42.396C1471.02 41.6773 1471.85 41.318 1472.83 41.318C1473.99 41.318 1474.87 41.78 1475.48 42.704V41.5ZM1472.99 47.506C1473.7 47.506 1474.29 47.268 1474.76 46.792C1475.24 46.3067 1475.48 45.7093 1475.48 45C1475.48 44.2907 1475.24 43.698 1474.76 43.222C1474.29 42.7367 1473.7 42.494 1472.99 42.494C1472.29 42.494 1471.7 42.7367 1471.22 43.222C1470.75 43.698 1470.51 44.2907 1470.51 45C1470.51 45.7093 1470.75 46.3067 1471.22 46.792C1471.7 47.268 1472.29 47.506 1472.99 47.506ZM1482.35 42.676H1480.49V46.47C1480.49 46.8153 1480.55 47.0627 1480.68 47.212C1480.82 47.352 1481.03 47.4267 1481.31 47.436C1481.59 47.436 1481.94 47.4267 1482.35 47.408V48.5C1481.29 48.64 1480.51 48.556 1480.01 48.248C1479.52 47.9307 1479.27 47.338 1479.27 46.47V42.676H1477.88V41.5H1479.27V39.904L1480.49 39.54V41.5H1482.35V42.676ZM1484.29 45.56C1484.41 46.1853 1484.7 46.6707 1485.14 47.016C1485.6 47.3613 1486.16 47.534 1486.82 47.534C1487.75 47.534 1488.42 47.1933 1488.84 46.512L1489.88 47.1C1489.19 48.1547 1488.17 48.682 1486.8 48.682C1485.69 48.682 1484.78 48.3367 1484.08 47.646C1483.39 46.946 1483.04 46.064 1483.04 45C1483.04 43.9453 1483.38 43.068 1484.07 42.368C1484.75 41.668 1485.63 41.318 1486.71 41.318C1487.74 41.318 1488.57 41.682 1489.22 42.41C1489.87 43.1287 1490.2 43.9967 1490.2 45.014C1490.2 45.1913 1490.18 45.3733 1490.16 45.56H1484.29ZM1486.71 42.466C1486.06 42.466 1485.52 42.6527 1485.09 43.026C1484.66 43.39 1484.39 43.88 1484.29 44.496H1488.97C1488.86 43.8333 1488.6 43.3293 1488.18 42.984C1487.76 42.6387 1487.27 42.466 1486.71 42.466ZM1492.37 43.39C1492.37 43.6607 1492.51 43.88 1492.78 44.048C1493.05 44.2067 1493.38 44.3373 1493.76 44.44C1494.14 44.5333 1494.53 44.6453 1494.91 44.776C1495.29 44.8973 1495.62 45.112 1495.89 45.42C1496.16 45.7187 1496.29 46.106 1496.29 46.582C1496.29 47.2167 1496.05 47.7253 1495.55 48.108C1495.07 48.4907 1494.44 48.682 1493.68 48.682C1493 48.682 1492.41 48.5327 1491.93 48.234C1491.44 47.9353 1491.1 47.5387 1490.89 47.044L1491.94 46.442C1492.05 46.778 1492.26 47.044 1492.57 47.24C1492.88 47.436 1493.25 47.534 1493.68 47.534C1494.08 47.534 1494.41 47.4593 1494.67 47.31C1494.93 47.1513 1495.06 46.9087 1495.06 46.582C1495.06 46.3113 1494.93 46.0967 1494.66 45.938C1494.39 45.77 1494.06 45.6393 1493.68 45.546C1493.29 45.4433 1492.91 45.3267 1492.53 45.196C1492.15 45.0653 1491.82 44.8507 1491.55 44.552C1491.28 44.2533 1491.14 43.8707 1491.14 43.404C1491.14 42.7973 1491.38 42.298 1491.84 41.906C1492.32 41.514 1492.91 41.318 1493.62 41.318C1494.19 41.318 1494.69 41.4487 1495.13 41.71C1495.58 41.962 1495.92 42.3167 1496.14 42.774L1495.12 43.348C1494.87 42.7507 1494.37 42.452 1493.62 42.452C1493.28 42.452 1492.98 42.536 1492.74 42.704C1492.5 42.8627 1492.37 43.0913 1492.37 43.39Z" fill="#434343"/>
<path d="M1541.2 38.0772C1541.01 38.0772 1540.83 38.1513 1540.7 38.2832C1540.57 38.4151 1540.49 38.594 1540.49 38.7805C1540.49 38.967 1540.57 39.1459 1540.7 39.2778C1540.83 39.4097 1541.01 39.4838 1541.2 39.4838C1541.38 39.4838 1541.56 39.4097 1541.69 39.2778C1541.83 39.1459 1541.9 38.967 1541.9 38.7805C1541.9 38.594 1541.83 38.4151 1541.69 38.2832C1541.56 38.1513 1541.38 38.0772 1541.2 38.0772ZM1539.21 38.0772C1539.35 37.6654 1539.62 37.3088 1539.98 37.0566C1540.33 36.8044 1540.76 36.6689 1541.2 36.6689C1541.63 36.6689 1542.06 36.8044 1542.42 37.0566C1542.77 37.3088 1543.04 37.6654 1543.19 38.0772H1548.23C1548.42 38.0772 1548.59 38.1513 1548.73 38.2832C1548.86 38.4151 1548.93 38.594 1548.93 38.7805C1548.93 38.967 1548.86 39.1459 1548.73 39.2778C1548.59 39.4097 1548.42 39.4838 1548.23 39.4838H1543.19C1543.04 39.8956 1542.77 40.2521 1542.42 40.5044C1542.06 40.7566 1541.63 40.892 1541.2 40.892C1540.76 40.892 1540.33 40.7566 1539.98 40.5044C1539.62 40.2521 1539.35 39.8956 1539.21 39.4838H1538.38C1538.2 39.4838 1538.02 39.4097 1537.89 39.2778C1537.75 39.1459 1537.68 38.967 1537.68 38.7805C1537.68 38.594 1537.75 38.4151 1537.89 38.2832C1538.02 38.1513 1538.2 38.0772 1538.38 38.0772H1539.21ZM1545.42 42.2969C1545.23 42.2969 1545.05 42.3709 1544.92 42.5028C1544.79 42.6347 1544.71 42.8136 1544.71 43.0001C1544.71 43.1866 1544.79 43.3655 1544.92 43.4974C1545.05 43.6293 1545.23 43.7034 1545.42 43.7034C1545.6 43.7034 1545.78 43.6293 1545.91 43.4974C1546.04 43.3655 1546.12 43.1866 1546.12 43.0001C1546.12 42.8136 1546.04 42.6347 1545.91 42.5028C1545.78 42.3709 1545.6 42.2969 1545.42 42.2969ZM1543.43 42.2969C1543.57 41.8851 1543.84 41.5285 1544.2 41.2763C1544.55 41.024 1544.98 40.8886 1545.42 40.8886C1545.85 40.8886 1546.28 41.024 1546.63 41.2763C1546.99 41.5285 1547.26 41.8851 1547.41 42.2969H1548.23C1548.42 42.2969 1548.59 42.3709 1548.73 42.5028C1548.86 42.6347 1548.93 42.8136 1548.93 43.0001C1548.93 43.1866 1548.86 43.3655 1548.73 43.4974C1548.59 43.6293 1548.42 43.7034 1548.23 43.7034H1547.41C1547.26 44.1152 1546.99 44.4718 1546.63 44.724C1546.28 44.9762 1545.85 45.1117 1545.42 45.1117C1544.98 45.1117 1544.55 44.9762 1544.2 44.724C1543.84 44.4718 1543.57 44.1152 1543.43 43.7034H1538.38C1538.2 43.7034 1538.02 43.6293 1537.89 43.4974C1537.75 43.3655 1537.68 43.1866 1537.68 43.0001C1537.68 42.8136 1537.75 42.6347 1537.89 42.5028C1538.02 42.3709 1538.2 42.2969 1538.38 42.2969H1543.43ZM1541.2 46.5165C1541.01 46.5165 1540.83 46.5906 1540.7 46.7225C1540.57 46.8544 1540.49 47.0332 1540.49 47.2198C1540.49 47.4063 1540.57 47.5852 1540.7 47.7171C1540.83 47.8489 1541.01 47.923 1541.2 47.923C1541.38 47.923 1541.56 47.8489 1541.69 47.7171C1541.83 47.5852 1541.9 47.4063 1541.9 47.2198C1541.9 47.0332 1541.83 46.8544 1541.69 46.7225C1541.56 46.5906 1541.38 46.5165 1541.2 46.5165ZM1539.21 46.5165C1539.35 46.1047 1539.62 45.7481 1539.98 45.4959C1540.33 45.2437 1540.76 45.1082 1541.2 45.1082C1541.63 45.1082 1542.06 45.2437 1542.42 45.4959C1542.77 45.7481 1543.04 46.1047 1543.19 46.5165H1548.23C1548.42 46.5165 1548.59 46.5906 1548.73 46.7225C1548.86 46.8544 1548.93 47.0332 1548.93 47.2198C1548.93 47.4063 1548.86 47.5852 1548.73 47.7171C1548.59 47.8489 1548.42 47.923 1548.23 47.923H1543.19C1543.04 48.3348 1542.77 48.6914 1542.42 48.9436C1542.06 49.1959 1541.63 49.3313 1541.2 49.3313C1540.76 49.3313 1540.33 49.1959 1539.98 48.9436C1539.62 48.6914 1539.35 48.3348 1539.21 47.923H1538.38C1538.2 47.923 1538.02 47.8489 1537.89 47.7171C1537.75 47.5852 1537.68 47.4063 1537.68 47.2198C1537.68 47.0332 1537.75 46.8544 1537.89 46.7225C1538.02 46.5906 1538.2 46.5165 1538.38 46.5165H1539.21Z" fill="#717171"/>
<rect x="259.452" y="18.1275" width="388.011" height="49.745" rx="24.8725" stroke="#9B9B9B" strokeWidth="0.904454"/>
<rect x="266.236" y="24.6006" width="92.2227" height="36" rx="18" fill="#F3F5F7"/>
<path d="M286.453 42.5186C286.901 42.7333 287.255 43.0413 287.517 43.4426C287.787 43.8439 287.923 44.3059 287.923 44.8286C287.923 45.6126 287.647 46.2706 287.097 46.8026C286.546 47.3346 285.874 47.6006 285.081 47.6006H280.853V37.8006H284.773C285.538 37.8006 286.187 38.0573 286.719 38.5706C287.251 39.0839 287.517 39.7186 287.517 40.4746C287.517 41.3426 287.162 42.0239 286.453 42.5186ZM284.773 39.0186H282.155V42.0146H284.773C285.183 42.0146 285.529 41.8699 285.809 41.5806C286.089 41.2913 286.229 40.9366 286.229 40.5166C286.229 40.1059 286.084 39.7559 285.795 39.4666C285.515 39.1679 285.174 39.0186 284.773 39.0186ZM285.081 46.3826C285.519 46.3826 285.888 46.2286 286.187 45.9206C286.485 45.6126 286.635 45.2346 286.635 44.7866C286.635 44.3479 286.481 43.9746 286.173 43.6666C285.874 43.3586 285.51 43.2046 285.081 43.2046H282.155V46.3826H285.081ZM295.289 46.7186C294.57 47.4279 293.698 47.7826 292.671 47.7826C291.644 47.7826 290.772 47.4279 290.053 46.7186C289.344 46.0093 288.989 45.1366 288.989 44.1006C288.989 43.0646 289.344 42.1919 290.053 41.4826C290.772 40.7733 291.644 40.4186 292.671 40.4186C293.698 40.4186 294.57 40.7733 295.289 41.4826C296.008 42.1919 296.367 43.0646 296.367 44.1006C296.367 45.1366 296.008 46.0093 295.289 46.7186ZM292.671 46.5926C293.371 46.5926 293.959 46.3546 294.435 45.8786C294.911 45.4026 295.149 44.8099 295.149 44.1006C295.149 43.3913 294.911 42.7986 294.435 42.3226C293.959 41.8466 293.371 41.6086 292.671 41.6086C291.98 41.6086 291.397 41.8466 290.921 42.3226C290.445 42.7986 290.207 43.3913 290.207 44.1006C290.207 44.8099 290.445 45.4026 290.921 45.8786C291.397 46.3546 291.98 46.5926 292.671 46.5926ZM299.021 41.7766C299.422 40.9086 300.15 40.4746 301.205 40.4746V41.7486C300.608 41.7206 300.094 41.8793 299.665 42.2246C299.236 42.5699 299.021 43.1253 299.021 43.8906V47.6006H297.803V40.6006H299.021V41.7766ZM303.013 39.3266C302.779 39.3266 302.583 39.2473 302.425 39.0886C302.266 38.9299 302.187 38.7386 302.187 38.5146C302.187 38.2906 302.266 38.0993 302.425 37.9406C302.583 37.7726 302.779 37.6886 303.013 37.6886C303.237 37.6886 303.428 37.7726 303.587 37.9406C303.745 38.0993 303.825 38.2906 303.825 38.5146C303.825 38.7386 303.745 38.9299 303.587 39.0886C303.428 39.2473 303.237 39.3266 303.013 39.3266ZM302.397 47.6006V40.6006H303.615V47.6006H302.397ZM310.373 40.6006H311.689L308.889 47.6006H307.461L304.661 40.6006H305.977L308.175 46.2986L310.373 40.6006ZM318.241 40.6006H319.459V47.6006H318.241V46.3966C317.635 47.3206 316.753 47.7826 315.595 47.7826C314.615 47.7826 313.78 47.4279 313.089 46.7186C312.399 45.9999 312.053 45.1273 312.053 44.1006C312.053 43.0739 312.399 42.2059 313.089 41.4966C313.78 40.7779 314.615 40.4186 315.595 40.4186C316.753 40.4186 317.635 40.8806 318.241 41.8046V40.6006ZM315.749 46.6066C316.459 46.6066 317.051 46.3686 317.527 45.8926C318.003 45.4073 318.241 44.8099 318.241 44.1006C318.241 43.3913 318.003 42.7986 317.527 42.3226C317.051 41.8373 316.459 41.5946 315.749 41.5946C315.049 41.5946 314.461 41.8373 313.985 42.3226C313.509 42.7986 313.271 43.3913 313.271 44.1006C313.271 44.8099 313.509 45.4073 313.985 45.8926C314.461 46.3686 315.049 46.6066 315.749 46.6066ZM321.305 47.6006V37.3806H322.523V47.6006H321.305ZM324.997 39.3266C324.764 39.3266 324.568 39.2473 324.409 39.0886C324.25 38.9299 324.171 38.7386 324.171 38.5146C324.171 38.2906 324.25 38.0993 324.409 37.9406C324.568 37.7726 324.764 37.6886 324.997 37.6886C325.221 37.6886 325.412 37.7726 325.571 37.9406C325.73 38.0993 325.809 38.2906 325.809 38.5146C325.809 38.7386 325.73 38.9299 325.571 39.0886C325.412 39.2473 325.221 39.3266 324.997 39.3266ZM324.381 47.6006V40.6006H325.599V47.6006H324.381Z" fill="#434343"/>
<path d="M337.656 38.9829L344.892 46.2185M337.656 46.2185L344.892 38.9829" stroke="black" strokeWidth="0.904454" strokeLinecap="round" strokeLinejoin="round"/>
<rect x="365.694" y="24.6006" width="86.2227" height="36" rx="18" fill="#F3F5F7"/>
<path d="M389.481 37.8006V47.6006H388.193V39.9426L384.987 45.2766H384.819L381.613 39.9566V47.6006H380.311V37.8006H381.781L384.903 42.9806L388.011 37.8006H389.481ZM397.246 40.6006H398.464V47.6006H397.246V46.3966C396.64 47.3206 395.758 47.7826 394.6 47.7826C393.62 47.7826 392.785 47.4279 392.094 46.7186C391.404 45.9999 391.058 45.1273 391.058 44.1006C391.058 43.0739 391.404 42.2059 392.094 41.4966C392.785 40.7779 393.62 40.4186 394.6 40.4186C395.758 40.4186 396.64 40.8806 397.246 41.8046V40.6006ZM394.754 46.6066C395.464 46.6066 396.056 46.3686 396.532 45.8926C397.008 45.4073 397.246 44.8099 397.246 44.1006C397.246 43.3913 397.008 42.7986 396.532 42.3226C396.056 41.8373 395.464 41.5946 394.754 41.5946C394.054 41.5946 393.466 41.8373 392.99 42.3226C392.514 42.7986 392.276 43.3913 392.276 44.1006C392.276 44.8099 392.514 45.4073 392.99 45.8926C393.466 46.3686 394.054 46.6066 394.754 46.6066ZM400.31 47.6006V37.3806H401.528V47.6006H400.31ZM409.182 40.6006H410.4V47.6006H409.182V46.3966C408.575 47.3206 407.693 47.7826 406.536 47.7826C405.556 47.7826 404.721 47.4279 404.03 46.7186C403.339 45.9999 402.994 45.1273 402.994 44.1006C402.994 43.0739 403.339 42.2059 404.03 41.4966C404.721 40.7779 405.556 40.4186 406.536 40.4186C407.693 40.4186 408.575 40.8806 409.182 41.8046V40.6006ZM406.69 46.6066C407.399 46.6066 407.992 46.3686 408.468 45.8926C408.944 45.4073 409.182 44.8099 409.182 44.1006C409.182 43.3913 408.944 42.7986 408.468 42.3226C407.992 41.8373 407.399 41.5946 406.69 41.5946C405.99 41.5946 405.402 41.8373 404.926 42.3226C404.45 42.7986 404.212 43.3913 404.212 44.1006C404.212 44.8099 404.45 45.4073 404.926 45.8926C405.402 46.3686 405.99 46.6066 406.69 46.6066ZM418.041 37.8006H419.259V47.6006H418.041V46.3966C417.435 47.3206 416.553 47.7826 415.395 47.7826C414.415 47.7826 413.58 47.4279 412.889 46.7186C412.199 45.9999 411.853 45.1273 411.853 44.1006C411.853 43.0739 412.199 42.2059 412.889 41.4966C413.58 40.7779 414.415 40.4186 415.395 40.4186C416.553 40.4186 417.435 40.8806 418.041 41.8046V37.8006ZM415.549 46.6066C416.259 46.6066 416.851 46.3686 417.327 45.8926C417.803 45.4073 418.041 44.8099 418.041 44.1006C418.041 43.3913 417.803 42.7986 417.327 42.3226C416.851 41.8373 416.259 41.5946 415.549 41.5946C414.849 41.5946 414.261 41.8373 413.785 42.3226C413.309 42.7986 413.071 43.3913 413.071 44.1006C413.071 44.8099 413.309 45.4073 413.785 45.8926C414.261 46.3686 414.849 46.6066 415.549 46.6066Z" fill="#434343"/>
<path d="M431.114 38.9829L438.35 46.2185M431.114 46.2185L438.35 38.9829" stroke="#434343" strokeWidth="0.904454" strokeLinecap="round" strokeLinejoin="round"/>
<rect x="459.153" y="24.6006" width="95.2227" height="36" rx="18" fill="#F3F5F7"/>
<path d="M477.592 37.8006C478.926 37.8006 480.032 38.2766 480.91 39.2286C481.796 40.1713 482.24 41.3286 482.24 42.7006C482.24 44.0726 481.796 45.2346 480.91 46.1866C480.032 47.1293 478.926 47.6006 477.592 47.6006H473.77V37.8006H477.592ZM477.592 46.3686C478.59 46.3686 479.407 46.0186 480.042 45.3186C480.676 44.6186 480.994 43.7459 480.994 42.7006C480.994 41.6553 480.676 40.7826 480.042 40.0826C479.407 39.3826 478.59 39.0326 477.592 39.0326H475.072V46.3686H477.592ZM489.489 40.6006H490.707V47.6006H489.489V46.3966C488.882 47.3206 488 47.7826 486.843 47.7826C485.863 47.7826 485.027 47.4279 484.337 46.7186C483.646 45.9999 483.301 45.1273 483.301 44.1006C483.301 43.0739 483.646 42.2059 484.337 41.4966C485.027 40.7779 485.863 40.4186 486.843 40.4186C488 40.4186 488.882 40.8806 489.489 41.8046V40.6006ZM486.997 46.6066C487.706 46.6066 488.299 46.3686 488.775 45.8926C489.251 45.4073 489.489 44.8099 489.489 44.1006C489.489 43.3913 489.251 42.7986 488.775 42.3226C488.299 41.8373 487.706 41.5946 486.997 41.5946C486.297 41.5946 485.709 41.8373 485.233 42.3226C484.757 42.7986 484.519 43.3913 484.519 44.1006C484.519 44.8099 484.757 45.4073 485.233 45.8926C485.709 46.3686 486.297 46.6066 486.997 46.6066ZM496.038 40.4186C496.859 40.4186 497.517 40.6799 498.012 41.2026C498.507 41.7159 498.754 42.4159 498.754 43.3026V47.6006H497.536V43.3726C497.536 42.8033 497.382 42.3646 497.074 42.0566C496.766 41.7393 496.341 41.5806 495.8 41.5806C495.193 41.5806 494.703 41.7719 494.33 42.1546C493.957 42.5279 493.77 43.1066 493.77 43.8906V47.6006H492.552V37.8006H493.77V41.6086C494.265 40.8153 495.021 40.4186 496.038 40.4186ZM501.07 39.3266C500.837 39.3266 500.641 39.2473 500.482 39.0886C500.324 38.9299 500.244 38.7386 500.244 38.5146C500.244 38.2906 500.324 38.0993 500.482 37.9406C500.641 37.7726 500.837 37.6886 501.07 37.6886C501.294 37.6886 501.486 37.7726 501.644 37.9406C501.803 38.0993 501.882 38.2906 501.882 38.5146C501.882 38.7386 501.803 38.9299 501.644 39.0886C501.486 39.2473 501.294 39.3266 501.07 39.3266ZM500.454 47.6006V40.6006H501.672V47.6006H500.454ZM504.567 42.4906C504.567 42.7613 504.702 42.9806 504.973 43.1486C505.243 43.3073 505.57 43.4379 505.953 43.5406C506.335 43.6339 506.718 43.7459 507.101 43.8766C507.483 43.9979 507.81 44.2126 508.081 44.5206C508.351 44.8193 508.487 45.2066 508.487 45.6826C508.487 46.3173 508.239 46.8259 507.745 47.2086C507.259 47.5913 506.634 47.7826 505.869 47.7826C505.187 47.7826 504.604 47.6333 504.119 47.3346C503.633 47.0359 503.288 46.6393 503.083 46.1446L504.133 45.5426C504.245 45.8786 504.455 46.1446 504.763 46.3406C505.071 46.5366 505.439 46.6346 505.869 46.6346C506.27 46.6346 506.601 46.5599 506.863 46.4106C507.124 46.2519 507.255 46.0093 507.255 45.6826C507.255 45.4119 507.119 45.1973 506.849 45.0386C506.578 44.8706 506.251 44.7399 505.869 44.6466C505.486 44.5439 505.103 44.4273 504.721 44.2966C504.338 44.1659 504.011 43.9513 503.741 43.6526C503.47 43.3539 503.335 42.9713 503.335 42.5046C503.335 41.8979 503.568 41.3986 504.035 41.0066C504.511 40.6146 505.103 40.4186 505.813 40.4186C506.382 40.4186 506.886 40.5493 507.325 40.8106C507.773 41.0626 508.109 41.4173 508.333 41.8746L507.311 42.4486C507.059 41.8513 506.559 41.5526 505.813 41.5526C505.467 41.5526 505.173 41.6366 504.931 41.8046C504.688 41.9633 504.567 42.1919 504.567 42.4906ZM515.533 40.6006H516.751V47.6006H515.533V46.3966C514.927 47.3206 514.045 47.7826 512.887 47.7826C511.907 47.7826 511.072 47.4279 510.381 46.7186C509.691 45.9999 509.345 45.1273 509.345 44.1006C509.345 43.0739 509.691 42.2059 510.381 41.4966C511.072 40.7779 511.907 40.4186 512.887 40.4186C514.045 40.4186 514.927 40.8806 515.533 41.8046V40.6006ZM513.041 46.6066C513.751 46.6066 514.343 46.3686 514.819 45.8926C515.295 45.4073 515.533 44.8099 515.533 44.1006C515.533 43.3913 515.295 42.7986 514.819 42.3226C514.343 41.8373 513.751 41.5946 513.041 41.5946C512.341 41.5946 511.753 41.8373 511.277 42.3226C510.801 42.7986 510.563 43.3913 510.563 44.1006C510.563 44.8099 510.801 45.4073 511.277 45.8926C511.753 46.3686 512.341 46.6066 513.041 46.6066ZM519.815 41.7766C520.216 40.9086 520.944 40.4746 521.999 40.4746V41.7486C521.402 41.7206 520.888 41.8793 520.459 42.2246C520.03 42.5699 519.815 43.1253 519.815 43.8906V47.6006H518.597V40.6006H519.815V41.7766Z" fill="#434343"/>
<path d="M533.573 38.9829L540.809 46.2185M533.573 46.2185L540.809 38.9829" stroke="#434343" strokeWidth="0.904454" strokeLinecap="round" strokeLinejoin="round"/>
<rect x="604.954" y="25.3634" width="34.653" height="34.653" rx="17.3265" stroke="#9B9B9B" strokeWidth="0.904454"/>
<path d="M622.28 35.1123V50.2677M614.703 42.69H629.858" stroke="#9B9B9B" strokeWidth="1.56939" strokeLinecap="round" strokeLinejoin="round"/>
<defs>
<filter id="filter0_d_502_21784" x="1560.91" y="3.20386" width="125.719" height="85.0185" filterUnits="userSpaceOnUse" color-interpolation-filters="sRGB">
<feFlood flood-opacity="0" result="BackgroundImageFix"/>
<feColorMatrix in="SourceAlpha" type="matrix" values="0 0 0 0 0 0 0 0 0 0 0 0 0 0 0 0 0 0 127 0" result="hardAlpha"/>
<feOffset dy="2.71336"/>
<feGaussianBlur stdDeviation="9.04454"/>
<feComposite in2="hardAlpha" operator="out"/>
<feColorMatrix type="matrix" values="0 0 0 0 0 0 0 0 0 0 0 0 0 0 0 0 0 0 0.09 0"/>
<feBlend mode="normal" in2="BackgroundImageFix" result="effect1_dropShadow_502_21784"/>
<feBlend mode="normal" in="SourceGraphic" in2="effect1_dropShadow_502_21784" result="shape"/>
</filter>
<filter id="filter1_d_502_21784" x="1562" y="1.57959" width="129.541" height="88.8403" filterUnits="userSpaceOnUse" color-interpolation-filters="sRGB">
<feFlood flood-opacity="0" result="BackgroundImageFix"/>
<feColorMatrix in="SourceAlpha" type="matrix" values="0 0 0 0 0 0 0 0 0 0 0 0 0 0 0 0 0 0 127 0" result="hardAlpha"/>
<feOffset dx="3" dy="3"/>
<feGaussianBlur stdDeviation="10"/>
<feComposite in2="hardAlpha" operator="out"/>
<feColorMatrix type="matrix" values="0 0 0 0 0 0 0 0 0 0 0 0 0 0 0 0 0 0 0.25 0"/>
<feBlend mode="normal" in2="BackgroundImageFix" result="effect1_dropShadow_502_21784"/>
<feBlend mode="normal" in="SourceGraphic" in2="effect1_dropShadow_502_21784" result="shape"/>
</filter>
<filter id="filter2_d_502_21784" x="1116" y="2" width="472" height="89" filterUnits="userSpaceOnUse" color-interpolation-filters="sRGB">
<feFlood flood-opacity="0" result="BackgroundImageFix"/>
<feColorMatrix in="SourceAlpha" type="matrix" values="0 0 0 0 0 0 0 0 0 0 0 0 0 0 0 0 0 0 127 0" result="hardAlpha"/>
<feOffset dy="3"/>
<feGaussianBlur stdDeviation="10"/>
<feComposite in2="hardAlpha" operator="out"/>
<feColorMatrix type="matrix" values="0 0 0 0 0 0 0 0 0 0 0 0 0 0 0 0 0 0 0.11 0"/>
<feBlend mode="normal" in2="BackgroundImageFix" result="effect1_dropShadow_502_21784"/>
<feBlend mode="normal" in="SourceGraphic" in2="effect1_dropShadow_502_21784" result="shape"/>
</filter>
</defs>
</svg>
